<svg xmlns="http://www.w3.org/2000/svg" xmlns:xlink="http://www.w3.org/1999/xlink" width="148" height="72" viewBox="0 0 148 72"><defs><path id="vydba" d="M1029 177a21.65 21.65 0 0 1 24.66-21.52c6.73-8.38 19.06-14 33.15-14 2.72 0 5.38.22 7.94.62a37.34 37.34 0 0 1 30.18-15.1c20.4 0 36.95 15.99 37.02 35.74a18.08 18.08 0 0 1 15.05 17.88c0 10-8.04 18.12-17.96 18.12a17.85 17.85 0 0 1-13.45-6.1c-5.9 3.85-13 6.1-20.66 6.1-6.4 0-12.43-1.58-17.68-4.35a48.63 48.63 0 0 1-20.44 4.35 48.03 48.03 0 0 1-22.23-5.23 21.36 21.36 0 0 1-14.03 5.23A21.65 21.65 0 0 1 1029 177z"/><path id="vydbb" d="M1053.67 170.15a28.28 28.28 0 0 1 29.44-28.2c-13.98.58-25.14 12.98-25.14 28.2 0 15.22 11.16 27.62 25.14 28.2a28.28 28.28 0 0 1-29.44-28.2z"/><path id="vydbd" d="M1141.15 180.51a17.9 17.9 0 0 1 18.67-17.85c-8.79.39-15.8 8.23-15.8 17.85 0 9.62 7.01 17.46 15.8 17.85l-.75.02c-9.9 0-17.92-8-17.92-17.87z"/><path id="vydbf" d="M1087.37 163a35.44 35.44 0 0 1 37-35.35c-17.39.78-31.26 16.3-31.26 35.35 0 19.04 13.87 34.57 31.25 35.35a35.44 35.44 0 0 1-36.99-35.35z"/><linearGradient id="vydbc" x1="1081.99" x2="1081.99" y1="198.38" y2="154.33" gradientUnits="userSpaceOnUse"><stop offset="0" stop-color="#f1f1f1"/><stop offset=".72" stop-color="#f1f1f1"/><stop offset="1" stop-color="#fff"/></linearGradient><linearGradient id="vydbe" x1="1159.07" x2="1159.07" y1="198.38" y2="162.64" gradientUnits="userSpaceOnUse"><stop offset="0" stop-color="#f1f1f1"/><stop offset="1" stop-color="#f1f1f1"/><stop offset="1" stop-color="#fff"/></linearGradient><linearGradient id="vydbg" x1="1122.87" x2="1122.87" y1="198.38" y2="142.46" gradientUnits="userSpaceOnUse"><stop offset="0" stop-color="#f1f1f1"/><stop offset=".68" stop-color="#f1f1f1"/><stop offset="1" stop-color="#fff"/></linearGradient></defs><g><g transform="translate(-1029 -127)"><g><g><use fill="#fff" xlink:href="#vydba"/></g><g><g><use fill="url(#vydbc)" xlink:href="#vydbb"/></g><g><use fill="url(#vydbe)" xlink:href="#vydbd"/></g><g><use fill="url(#vydbg)" xlink:href="#vydbf"/></g></g></g></g></g></svg>