<svg xmlns="http://www.w3.org/2000/svg" xmlns:xlink="http://www.w3.org/1999/xlink" width="711" height="455" viewBox="0 0 711 455"><defs><path id="e8zva" d="M1327.56 1966.92c126.32 0 228.73-318.43 228.73-711.24s-102.4-711.25-228.73-711.25"/><path id="e8zvb" d="M1327.56 1966.92c96.35 0 174.46-318.43 174.46-711.24s-78.1-711.25-174.46-711.25"/><path id="e8zvc" d="M1327.29 1966.92c74.92 0 135.66-318.43 135.66-711.24s-60.74-711.25-135.66-711.25"/><path id="e8zvd" d="M1327.83 1966.92c57.84 0 104.73-318.43 104.73-711.24s-46.89-711.25-104.73-711.25"/><path id="e8zve" d="M1327.83 1966.92c42.86 0 77.6-318.43 77.6-711.24s-34.74-711.25-77.6-711.25"/><path id="e8zvf" d="M1327.56 1966.92c23.53 0 42.6-318.43 42.6-711.24s-19.07-711.25-42.6-711.25"/><path id="e8zvg" d="M1327.29 1966.92c9.59 0 17.36-318.43 17.36-711.24s-7.77-711.25-17.36-711.25"/><path id="e8zvh" d="M1327.27 2192.77c126.05 0 228.23-318.43 228.23-711.24s-102.18-711.25-228.23-711.25"/><path id="e8zvi" d="M1327.27 2192.77c96.14 0 174.08-318.43 174.08-711.24s-77.94-711.25-174.08-711.25"/><path id="e8zvj" d="M1327 2192.77c74.76 0 135.37-318.43 135.37-711.24s-60.6-711.25-135.37-711.25"/><path id="e8zvk" d="M1327.54 2192.77c57.72 0 104.5-318.43 104.5-711.24s-46.78-711.25-104.5-711.25"/><path id="e8zvl" d="M1327.54 2192.77c42.76 0 77.43-318.43 77.43-711.24s-34.67-711.25-77.43-711.25"/><path id="e8zvm" d="M1327 2192.77c32 0 57.94-318.43 57.94-711.24S1359 770.28 1327 770.28"/><path id="e8zvn" d="M1327 2192.77c17.05 0 30.86-318.43 30.86-711.24s-13.81-711.25-30.86-711.25"/><path id="e8zvo" d="M1327.27 2192.77c3.14 0 5.69-318.43 5.69-711.24s-2.55-711.25-5.69-711.25"/></defs><g><g transform="translate(-729 -1141)"><g transform="rotate(-90 1441.5 1256)"><g><use fill="#fff" fill-opacity=".01" xlink:href="#e8zva"/><use fill="#fff" fill-opacity="0" stroke="#35375a" stroke-dasharray="4 4" stroke-miterlimit="50" stroke-opacity=".07" xlink:href="#e8zva"/></g><g><use fill="#fff" fill-opacity=".01" xlink:href="#e8zvb"/><use fill="#fff" fill-opacity="0" stroke="#35375a" stroke-dasharray="4 4" stroke-miterlimit="50" stroke-opacity=".07" xlink:href="#e8zvb"/></g><g><use fill="#fff" fill-opacity=".01" xlink:href="#e8zvc"/><use fill="#fff" fill-opacity="0" stroke="#35375a" stroke-dasharray="4 4" stroke-miterlimit="50" stroke-opacity=".07" xlink:href="#e8zvc"/></g><g><use fill="#fff" fill-opacity=".01" xlink:href="#e8zvd"/><use fill="#fff" fill-opacity="0" stroke="#35375a" stroke-dasharray="4 4" stroke-miterlimit="50" stroke-opacity=".07" xlink:href="#e8zvd"/></g><g><use fill="#fff" fill-opacity=".01" xlink:href="#e8zve"/><use fill="#fff" fill-opacity="0" stroke="#35375a" stroke-dasharray="4 4" stroke-miterlimit="50" stroke-opacity=".07" xlink:href="#e8zve"/></g><g><use fill="#fff" fill-opacity=".01" xlink:href="#e8zvf"/><use fill="#fff" fill-opacity="0" stroke="#35375a" stroke-dasharray="4 4" stroke-miterlimit="50" stroke-opacity=".07" xlink:href="#e8zvf"/></g><g><use fill="#fff" fill-opacity=".01" xlink:href="#e8zvg"/><use fill="#fff" fill-opacity="0" stroke="#35375a" stroke-dasharray="4 4" stroke-miterlimit="50" stroke-opacity=".07" xlink:href="#e8zvg"/></g></g><g transform="rotate(90 1441.5 1481.5)"><g><use fill="#fff" fill-opacity="0" stroke="#35375a" stroke-dasharray="4 4" stroke-miterlimit="50" stroke-opacity=".07" xlink:href="#e8zvh"/></g><g><use fill="#fff" fill-opacity="0" stroke="#35375a" stroke-dasharray="4 4" stroke-miterlimit="50" stroke-opacity=".07" xlink:href="#e8zvi"/></g><g><use fill="#fff" fill-opacity="0" stroke="#35375a" stroke-dasharray="4 4" stroke-miterlimit="50" stroke-opacity=".07" xlink:href="#e8zvj"/></g><g><use fill="#fff" fill-opacity="0" stroke="#35375a" stroke-dasharray="4 4" stroke-miterlimit="50" stroke-opacity=".07" xlink:href="#e8zvk"/></g><g><use fill="#fff" fill-opacity="0" stroke="#35375a" stroke-dasharray="4 4" stroke-miterlimit="50" stroke-opacity=".07" xlink:href="#e8zvl"/></g><g><use fill="#fff" fill-opacity="0" stroke="#35375a" stroke-dasharray="4 4" stroke-miterlimit="50" stroke-opacity=".07" xlink:href="#e8zvm"/></g><g><use fill="#fff" fill-opacity="0" stroke="#35375a" stroke-dasharray="4 4" stroke-miterlimit="50" stroke-opacity=".07" xlink:href="#e8zvn"/></g><g><use fill="#fff" fill-opacity="0" stroke="#35375a" stroke-dasharray="4 4" stroke-miterlimit="50" stroke-opacity=".07" xlink:href="#e8zvo"/></g></g></g></g></svg>