<svg xmlns="http://www.w3.org/2000/svg" xmlns:xlink="http://www.w3.org/1999/xlink" width="713" height="229" viewBox="0 0 713 229"><defs><path id="ekr2a" d="M-113.73 2192.77c126.05 0 228.23-318.43 228.23-711.24S12.32 770.28-113.73 770.28"/><path id="ekr2b" d="M-113.73 2192.77c96.14 0 174.08-318.43 174.08-711.24s-77.94-711.25-174.08-711.25"/><path id="ekr2c" d="M-114 2192.77c74.76 0 135.37-318.43 135.37-711.24S-39.23 770.28-114 770.28"/><path id="ekr2d" d="M-113.46 2192.77c57.72 0 104.5-318.43 104.5-711.24s-46.78-711.25-104.5-711.25"/><path id="ekr2e" d="M-113.46 2192.77c42.76 0 77.43-318.43 77.43-711.24s-34.67-711.25-77.43-711.25"/><path id="ekr2f" d="M-114 2192.77c32 0 57.94-318.43 57.94-711.24S-82 770.28-114 770.28"/><path id="ekr2g" d="M-114 2192.77c17.05 0 30.86-318.43 30.86-711.24S-96.95 770.28-114 770.28"/><path id="ekr2h" d="M-113.73 2192.77c3.14 0 5.69-318.43 5.69-711.24s-2.55-711.25-5.69-711.25"/></defs><g><g transform="rotate(90 684 798)"><g><use fill="#fff" fill-opacity="0" stroke="#35375a" stroke-dasharray="4 4" stroke-miterlimit="50" stroke-opacity=".07" xlink:href="#ekr2a"/></g><g><use fill="#fff" fill-opacity="0" stroke="#35375a" stroke-dasharray="4 4" stroke-miterlimit="50" stroke-opacity=".07" xlink:href="#ekr2b"/></g><g><use fill="#fff" fill-opacity="0" stroke="#35375a" stroke-dasharray="4 4" stroke-miterlimit="50" stroke-opacity=".07" xlink:href="#ekr2c"/></g><g><use fill="#fff" fill-opacity="0" stroke="#35375a" stroke-dasharray="4 4" stroke-miterlimit="50" stroke-opacity=".07" xlink:href="#ekr2d"/></g><g><use fill="#fff" fill-opacity="0" stroke="#35375a" stroke-dasharray="4 4" stroke-miterlimit="50" stroke-opacity=".07" xlink:href="#ekr2e"/></g><g><use fill="#fff" fill-opacity="0" stroke="#35375a" stroke-dasharray="4 4" stroke-miterlimit="50" stroke-opacity=".07" xlink:href="#ekr2f"/></g><g><use fill="#fff" fill-opacity="0" stroke="#35375a" stroke-dasharray="4 4" stroke-miterlimit="50" stroke-opacity=".07" xlink:href="#ekr2g"/></g><g><use fill="#fff" fill-opacity="0" stroke="#35375a" stroke-dasharray="4 4" stroke-miterlimit="50" stroke-opacity=".07" xlink:href="#ekr2h"/></g></g></g></svg>