<svg xmlns="http://www.w3.org/2000/svg" xmlns:xlink="http://www.w3.org/1999/xlink" width="1440" height="455" viewBox="0 0 1440 455"><defs><path id="9obta" d="M-113.44 1966.92c126.32 0 228.73-318.43 228.73-711.24S12.89 544.43-113.44 544.43"/><path id="9obtb" d="M-113.44 1966.92c96.35 0 174.46-318.43 174.46-711.24s-78.1-711.25-174.46-711.25"/><path id="9obtc" d="M-113.71 1966.92c74.92 0 135.66-318.43 135.66-711.24S-38.79 544.43-113.7 544.43"/><path id="9obtd" d="M-113.17 1966.92c57.84 0 104.73-318.43 104.73-711.24s-46.89-711.25-104.73-711.25"/><path id="9obte" d="M-113.17 1966.92c42.86 0 77.6-318.43 77.6-711.24s-34.74-711.25-77.6-711.25"/><path id="9obtf" d="M-113.44 1966.92c23.53 0 42.6-318.43 42.6-711.24s-19.07-711.25-42.6-711.25"/><path id="9obtg" d="M-113.71 1966.92c9.59 0 17.36-318.43 17.36-711.24s-7.77-711.25-17.36-711.25"/><path id="9obth" d="M-113.73 2192.77c126.05 0 228.23-318.43 228.23-711.24S12.32 770.28-113.73 770.28"/><path id="9obti" d="M-113.73 2192.77c96.14 0 174.08-318.43 174.08-711.24s-77.94-711.25-174.08-711.25"/><path id="9obtj" d="M-114 2192.77c74.76 0 135.37-318.43 135.37-711.24S-39.23 770.28-114 770.28"/><path id="9obtk" d="M-113.46 2192.77c57.72 0 104.5-318.43 104.5-711.24s-46.78-711.25-104.5-711.25"/><path id="9obtl" d="M-113.46 2192.77c42.76 0 77.43-318.43 77.43-711.24s-34.67-711.25-77.43-711.25"/><path id="9obtm" d="M-114 2192.77c32 0 57.94-318.43 57.94-711.24S-82 770.28-114 770.28"/><path id="9obtn" d="M-114 2192.77c17.05 0 30.86-318.43 30.86-711.24S-96.95 770.28-114 770.28"/><path id="9obto" d="M-113.73 2192.77c3.14 0 5.69-318.43 5.69-711.24s-2.55-711.25-5.69-711.25"/><path id="9obtp" d="M1327.56 1966.92c126.32 0 228.73-318.43 228.73-711.24s-102.4-711.25-228.73-711.25"/><path id="9obtq" d="M1327.56 1966.92c96.35 0 174.46-318.43 174.46-711.24s-78.1-711.25-174.46-711.25"/><path id="9obtr" d="M1327.29 1966.92c74.92 0 135.66-318.43 135.66-711.24s-60.74-711.25-135.66-711.25"/><path id="9obts" d="M1327.83 1966.92c57.84 0 104.73-318.43 104.73-711.24s-46.89-711.25-104.73-711.25"/><path id="9obtt" d="M1327.83 1966.92c42.86 0 77.6-318.43 77.6-711.24s-34.74-711.25-77.6-711.25"/><path id="9obtu" d="M1327.56 1966.92c23.53 0 42.6-318.43 42.6-711.24s-19.07-711.25-42.6-711.25"/><path id="9obtv" d="M1327.29 1966.92c9.59 0 17.36-318.43 17.36-711.24s-7.77-711.25-17.36-711.25"/><path id="9obtw" d="M1327.27 2192.77c126.05 0 228.23-318.43 228.23-711.24s-102.18-711.25-228.23-711.25"/><path id="9obtx" d="M1327.27 2192.77c96.14 0 174.08-318.43 174.08-711.24s-77.94-711.25-174.08-711.25"/><path id="9obty" d="M1327 2192.77c74.76 0 135.37-318.43 135.37-711.24s-60.6-711.25-135.37-711.25"/><path id="9obtz" d="M1327.54 2192.77c57.72 0 104.5-318.43 104.5-711.24s-46.78-711.25-104.5-711.25"/><path id="9obtA" d="M1327.54 2192.77c42.76 0 77.43-318.43 77.43-711.24s-34.67-711.25-77.43-711.25"/><path id="9obtB" d="M1327 2192.77c32 0 57.94-318.43 57.94-711.24S1359 770.28 1327 770.28"/><path id="9obtC" d="M1327 2192.77c17.05 0 30.86-318.43 30.86-711.24s-13.81-711.25-30.86-711.25"/><path id="9obtD" d="M1327.27 2192.77c3.14 0 5.69-318.43 5.69-711.24s-2.55-711.25-5.69-711.25"/></defs><g><g clip-path="url(#clip-77B02018-B124-4084-B983-49AE4AA6DD0D)" transform="translate(0 -1141)"><g><g transform="rotate(-90 .5 1256)"><g><use fill="#fff" fill-opacity=".01" xlink:href="#9obta"/><use fill="#fff" fill-opacity="0" stroke="#35375a" stroke-dasharray="4 4" stroke-miterlimit="50" stroke-opacity=".07" xlink:href="#9obta"/></g><g><use fill="#fff" fill-opacity=".01" xlink:href="#9obtb"/><use fill="#fff" fill-opacity="0" stroke="#35375a" stroke-dasharray="4 4" stroke-miterlimit="50" stroke-opacity=".07" xlink:href="#9obtb"/></g><g><use fill="#fff" fill-opacity=".01" xlink:href="#9obtc"/><use fill="#fff" fill-opacity="0" stroke="#35375a" stroke-dasharray="4 4" stroke-miterlimit="50" stroke-opacity=".07" xlink:href="#9obtc"/></g><g><use fill="#fff" fill-opacity=".01" xlink:href="#9obtd"/><use fill="#fff" fill-opacity="0" stroke="#35375a" stroke-dasharray="4 4" stroke-miterlimit="50" stroke-opacity=".07" xlink:href="#9obtd"/></g><g><use fill="#fff" fill-opacity=".01" xlink:href="#9obte"/><use fill="#fff" fill-opacity="0" stroke="#35375a" stroke-dasharray="4 4" stroke-miterlimit="50" stroke-opacity=".07" xlink:href="#9obte"/></g><g><use fill="#fff" fill-opacity=".01" xlink:href="#9obtf"/><use fill="#fff" fill-opacity="0" stroke="#35375a" stroke-dasharray="4 4" stroke-miterlimit="50" stroke-opacity=".07" xlink:href="#9obtf"/></g><g><use fill="#fff" fill-opacity=".01" xlink:href="#9obtg"/><use fill="#fff" fill-opacity="0" stroke="#35375a" stroke-dasharray="4 4" stroke-miterlimit="50" stroke-opacity=".07" xlink:href="#9obtg"/></g></g><g transform="rotate(90 .5 1481.5)"><g><use fill="#fff" fill-opacity="0" stroke="#35375a" stroke-dasharray="4 4" stroke-miterlimit="50" stroke-opacity=".07" xlink:href="#9obth"/></g><g><use fill="#fff" fill-opacity="0" stroke="#35375a" stroke-dasharray="4 4" stroke-miterlimit="50" stroke-opacity=".07" xlink:href="#9obti"/></g><g><use fill="#fff" fill-opacity="0" stroke="#35375a" stroke-dasharray="4 4" stroke-miterlimit="50" stroke-opacity=".07" xlink:href="#9obtj"/></g><g><use fill="#fff" fill-opacity="0" stroke="#35375a" stroke-dasharray="4 4" stroke-miterlimit="50" stroke-opacity=".07" xlink:href="#9obtk"/></g><g><use fill="#fff" fill-opacity="0" stroke="#35375a" stroke-dasharray="4 4" stroke-miterlimit="50" stroke-opacity=".07" xlink:href="#9obtl"/></g><g><use fill="#fff" fill-opacity="0" stroke="#35375a" stroke-dasharray="4 4" stroke-miterlimit="50" stroke-opacity=".07" xlink:href="#9obtm"/></g><g><use fill="#fff" fill-opacity="0" stroke="#35375a" stroke-dasharray="4 4" stroke-miterlimit="50" stroke-opacity=".07" xlink:href="#9obtn"/></g><g><use fill="#fff" fill-opacity="0" stroke="#35375a" stroke-dasharray="4 4" stroke-miterlimit="50" stroke-opacity=".07" xlink:href="#9obto"/></g></g></g><g><g transform="rotate(-90 1441.5 1256)"><g><use fill="#fff" fill-opacity=".01" xlink:href="#9obtp"/><use fill="#fff" fill-opacity="0" stroke="#35375a" stroke-dasharray="4 4" stroke-miterlimit="50" stroke-opacity=".07" xlink:href="#9obtp"/></g><g><use fill="#fff" fill-opacity=".01" xlink:href="#9obtq"/><use fill="#fff" fill-opacity="0" stroke="#35375a" stroke-dasharray="4 4" stroke-miterlimit="50" stroke-opacity=".07" xlink:href="#9obtq"/></g><g><use fill="#fff" fill-opacity=".01" xlink:href="#9obtr"/><use fill="#fff" fill-opacity="0" stroke="#35375a" stroke-dasharray="4 4" stroke-miterlimit="50" stroke-opacity=".07" xlink:href="#9obtr"/></g><g><use fill="#fff" fill-opacity=".01" xlink:href="#9obts"/><use fill="#fff" fill-opacity="0" stroke="#35375a" stroke-dasharray="4 4" stroke-miterlimit="50" stroke-opacity=".07" xlink:href="#9obts"/></g><g><use fill="#fff" fill-opacity=".01" xlink:href="#9obtt"/><use fill="#fff" fill-opacity="0" stroke="#35375a" stroke-dasharray="4 4" stroke-miterlimit="50" stroke-opacity=".07" xlink:href="#9obtt"/></g><g><use fill="#fff" fill-opacity=".01" xlink:href="#9obtu"/><use fill="#fff" fill-opacity="0" stroke="#35375a" stroke-dasharray="4 4" stroke-miterlimit="50" stroke-opacity=".07" xlink:href="#9obtu"/></g><g><use fill="#fff" fill-opacity=".01" xlink:href="#9obtv"/><use fill="#fff" fill-opacity="0" stroke="#35375a" stroke-dasharray="4 4" stroke-miterlimit="50" stroke-opacity=".07" xlink:href="#9obtv"/></g></g><g transform="rotate(90 1441.5 1481.5)"><g><use fill="#fff" fill-opacity="0" stroke="#35375a" stroke-dasharray="4 4" stroke-miterlimit="50" stroke-opacity=".07" xlink:href="#9obtw"/></g><g><use fill="#fff" fill-opacity="0" stroke="#35375a" stroke-dasharray="4 4" stroke-miterlimit="50" stroke-opacity=".07" xlink:href="#9obtx"/></g><g><use fill="#fff" fill-opacity="0" stroke="#35375a" stroke-dasharray="4 4" stroke-miterlimit="50" stroke-opacity=".07" xlink:href="#9obty"/></g><g><use fill="#fff" fill-opacity="0" stroke="#35375a" stroke-dasharray="4 4" stroke-miterlimit="50" stroke-opacity=".07" xlink:href="#9obtz"/></g><g><use fill="#fff" fill-opacity="0" stroke="#35375a" stroke-dasharray="4 4" stroke-miterlimit="50" stroke-opacity=".07" xlink:href="#9obtA"/></g><g><use fill="#fff" fill-opacity="0" stroke="#35375a" stroke-dasharray="4 4" stroke-miterlimit="50" stroke-opacity=".07" xlink:href="#9obtB"/></g><g><use fill="#fff" fill-opacity="0" stroke="#35375a" stroke-dasharray="4 4" stroke-miterlimit="50" stroke-opacity=".07" xlink:href="#9obtC"/></g><g><use fill="#fff" fill-opacity="0" stroke="#35375a" stroke-dasharray="4 4" stroke-miterlimit="50" stroke-opacity=".07" xlink:href="#9obtD"/></g></g></g></g></g></svg>