<svg xmlns="http://www.w3.org/2000/svg" xmlns:xlink="http://www.w3.org/1999/xlink" width="1440" height="455" viewBox="0 0 1440 455"><defs><path id="mg5ua" d="M-113.44 1966.92c126.32 0 228.73-318.43 228.73-711.24S12.89 544.43-113.44 544.43"/><path id="mg5ub" d="M-113.44 1966.92c96.35 0 174.46-318.43 174.46-711.24s-78.1-711.25-174.46-711.25"/><path id="mg5uc" d="M-113.71 1966.92c74.92 0 135.66-318.43 135.66-711.24S-38.79 544.43-113.7 544.43"/><path id="mg5ud" d="M-113.17 1966.92c57.84 0 104.73-318.43 104.73-711.24s-46.89-711.25-104.73-711.25"/><path id="mg5ue" d="M-113.17 1966.92c42.86 0 77.6-318.43 77.6-711.24s-34.74-711.25-77.6-711.25"/><path id="mg5uf" d="M-113.44 1966.92c23.53 0 42.6-318.43 42.6-711.24s-19.07-711.25-42.6-711.25"/><path id="mg5ug" d="M-113.71 1966.92c9.59 0 17.36-318.43 17.36-711.24s-7.77-711.25-17.36-711.25"/><path id="mg5uh" d="M-113.73 2192.77c126.05 0 228.23-318.43 228.23-711.24S12.32 770.28-113.73 770.28"/><path id="mg5ui" d="M-113.73 2192.77c96.14 0 174.08-318.43 174.08-711.24s-77.94-711.25-174.08-711.25"/><path id="mg5uj" d="M-114 2192.77c74.76 0 135.37-318.43 135.37-711.24S-39.23 770.28-114 770.28"/><path id="mg5uk" d="M-113.46 2192.77c57.72 0 104.5-318.43 104.5-711.24s-46.78-711.25-104.5-711.25"/><path id="mg5ul" d="M-113.46 2192.77c42.76 0 77.43-318.43 77.43-711.24s-34.67-711.25-77.43-711.25"/><path id="mg5um" d="M-114 2192.77c32 0 57.94-318.43 57.94-711.24S-82 770.28-114 770.28"/><path id="mg5un" d="M-114 2192.77c17.05 0 30.86-318.43 30.86-711.24S-96.95 770.28-114 770.28"/><path id="mg5uo" d="M-113.73 2192.77c3.14 0 5.69-318.43 5.69-711.24s-2.55-711.25-5.69-711.25"/><path id="mg5up" d="M1327.56 1966.92c126.32 0 228.73-318.43 228.73-711.24s-102.4-711.25-228.73-711.25"/><path id="mg5uq" d="M1327.56 1966.92c96.35 0 174.46-318.43 174.46-711.24s-78.1-711.25-174.46-711.25"/><path id="mg5ur" d="M1327.29 1966.92c74.92 0 135.66-318.43 135.66-711.24s-60.74-711.25-135.66-711.25"/><path id="mg5us" d="M1327.83 1966.92c57.84 0 104.73-318.43 104.73-711.24s-46.89-711.25-104.73-711.25"/><path id="mg5ut" d="M1327.83 1966.92c42.86 0 77.6-318.43 77.6-711.24s-34.74-711.25-77.6-711.25"/><path id="mg5uu" d="M1327.56 1966.92c23.53 0 42.6-318.43 42.6-711.24s-19.07-711.25-42.6-711.25"/><path id="mg5uv" d="M1327.29 1966.92c9.59 0 17.36-318.43 17.36-711.24s-7.77-711.25-17.36-711.25"/><path id="mg5uw" d="M1327.27 2192.77c126.05 0 228.23-318.43 228.23-711.24s-102.18-711.25-228.23-711.25"/><path id="mg5ux" d="M1327.27 2192.77c96.14 0 174.08-318.43 174.08-711.24s-77.94-711.25-174.08-711.25"/><path id="mg5uy" d="M1327 2192.77c74.76 0 135.37-318.43 135.37-711.24s-60.6-711.25-135.37-711.25"/><path id="mg5uz" d="M1327.54 2192.77c57.72 0 104.5-318.43 104.5-711.24s-46.78-711.25-104.5-711.25"/><path id="mg5uA" d="M1327.54 2192.77c42.76 0 77.43-318.43 77.43-711.24s-34.67-711.25-77.43-711.25"/><path id="mg5uB" d="M1327 2192.77c32 0 57.94-318.43 57.94-711.24S1359 770.28 1327 770.28"/><path id="mg5uC" d="M1327 2192.77c17.05 0 30.86-318.43 30.86-711.24s-13.81-711.25-30.86-711.25"/><path id="mg5uD" d="M1327.27 2192.77c3.14 0 5.69-318.43 5.69-711.24s-2.55-711.25-5.69-711.25"/></defs><g><g clip-path="url(#clip-77B02018-B124-4084-B983-49AE4AA6DD0D)" transform="translate(0 -1141)"><g><g transform="rotate(-90 .5 1256)"><g><use fill="#fff" fill-opacity=".01" xlink:href="#mg5ua"/><use fill="#fff" fill-opacity="0" stroke="#35375a" stroke-dasharray="4 4" stroke-miterlimit="50" stroke-opacity=".07" xlink:href="#mg5ua"/></g><g><use fill="#fff" fill-opacity=".01" xlink:href="#mg5ub"/><use fill="#fff" fill-opacity="0" stroke="#35375a" stroke-dasharray="4 4" stroke-miterlimit="50" stroke-opacity=".07" xlink:href="#mg5ub"/></g><g><use fill="#fff" fill-opacity=".01" xlink:href="#mg5uc"/><use fill="#fff" fill-opacity="0" stroke="#35375a" stroke-dasharray="4 4" stroke-miterlimit="50" stroke-opacity=".07" xlink:href="#mg5uc"/></g><g><use fill="#fff" fill-opacity=".01" xlink:href="#mg5ud"/><use fill="#fff" fill-opacity="0" stroke="#35375a" stroke-dasharray="4 4" stroke-miterlimit="50" stroke-opacity=".07" xlink:href="#mg5ud"/></g><g><use fill="#fff" fill-opacity=".01" xlink:href="#mg5ue"/><use fill="#fff" fill-opacity="0" stroke="#35375a" stroke-dasharray="4 4" stroke-miterlimit="50" stroke-opacity=".07" xlink:href="#mg5ue"/></g><g><use fill="#fff" fill-opacity=".01" xlink:href="#mg5uf"/><use fill="#fff" fill-opacity="0" stroke="#35375a" stroke-dasharray="4 4" stroke-miterlimit="50" stroke-opacity=".07" xlink:href="#mg5uf"/></g><g><use fill="#fff" fill-opacity=".01" xlink:href="#mg5ug"/><use fill="#fff" fill-opacity="0" stroke="#35375a" stroke-dasharray="4 4" stroke-miterlimit="50" stroke-opacity=".07" xlink:href="#mg5ug"/></g></g><g transform="rotate(90 .5 1481.5)"><g><use fill="#fff" fill-opacity="0" stroke="#35375a" stroke-dasharray="4 4" stroke-miterlimit="50" stroke-opacity=".07" xlink:href="#mg5uh"/></g><g><use fill="#fff" fill-opacity="0" stroke="#35375a" stroke-dasharray="4 4" stroke-miterlimit="50" stroke-opacity=".07" xlink:href="#mg5ui"/></g><g><use fill="#fff" fill-opacity="0" stroke="#35375a" stroke-dasharray="4 4" stroke-miterlimit="50" stroke-opacity=".07" xlink:href="#mg5uj"/></g><g><use fill="#fff" fill-opacity="0" stroke="#35375a" stroke-dasharray="4 4" stroke-miterlimit="50" stroke-opacity=".07" xlink:href="#mg5uk"/></g><g><use fill="#fff" fill-opacity="0" stroke="#35375a" stroke-dasharray="4 4" stroke-miterlimit="50" stroke-opacity=".07" xlink:href="#mg5ul"/></g><g><use fill="#fff" fill-opacity="0" stroke="#35375a" stroke-dasharray="4 4" stroke-miterlimit="50" stroke-opacity=".07" xlink:href="#mg5um"/></g><g><use fill="#fff" fill-opacity="0" stroke="#35375a" stroke-dasharray="4 4" stroke-miterlimit="50" stroke-opacity=".07" xlink:href="#mg5un"/></g><g><use fill="#fff" fill-opacity="0" stroke="#35375a" stroke-dasharray="4 4" stroke-miterlimit="50" stroke-opacity=".07" xlink:href="#mg5uo"/></g></g></g><g><g transform="rotate(-90 1441.5 1256)"><g><use fill="#fff" fill-opacity=".01" xlink:href="#mg5up"/><use fill="#fff" fill-opacity="0" stroke="#35375a" stroke-dasharray="4 4" stroke-miterlimit="50" stroke-opacity=".07" xlink:href="#mg5up"/></g><g><use fill="#fff" fill-opacity=".01" xlink:href="#mg5uq"/><use fill="#fff" fill-opacity="0" stroke="#35375a" stroke-dasharray="4 4" stroke-miterlimit="50" stroke-opacity=".07" xlink:href="#mg5uq"/></g><g><use fill="#fff" fill-opacity=".01" xlink:href="#mg5ur"/><use fill="#fff" fill-opacity="0" stroke="#35375a" stroke-dasharray="4 4" stroke-miterlimit="50" stroke-opacity=".07" xlink:href="#mg5ur"/></g><g><use fill="#fff" fill-opacity=".01" xlink:href="#mg5us"/><use fill="#fff" fill-opacity="0" stroke="#35375a" stroke-dasharray="4 4" stroke-miterlimit="50" stroke-opacity=".07" xlink:href="#mg5us"/></g><g><use fill="#fff" fill-opacity=".01" xlink:href="#mg5ut"/><use fill="#fff" fill-opacity="0" stroke="#35375a" stroke-dasharray="4 4" stroke-miterlimit="50" stroke-opacity=".07" xlink:href="#mg5ut"/></g><g><use fill="#fff" fill-opacity=".01" xlink:href="#mg5uu"/><use fill="#fff" fill-opacity="0" stroke="#35375a" stroke-dasharray="4 4" stroke-miterlimit="50" stroke-opacity=".07" xlink:href="#mg5uu"/></g><g><use fill="#fff" fill-opacity=".01" xlink:href="#mg5uv"/><use fill="#fff" fill-opacity="0" stroke="#35375a" stroke-dasharray="4 4" stroke-miterlimit="50" stroke-opacity=".07" xlink:href="#mg5uv"/></g></g><g transform="rotate(90 1441.5 1481.5)"><g><use fill="#fff" fill-opacity="0" stroke="#35375a" stroke-dasharray="4 4" stroke-miterlimit="50" stroke-opacity=".07" xlink:href="#mg5uw"/></g><g><use fill="#fff" fill-opacity="0" stroke="#35375a" stroke-dasharray="4 4" stroke-miterlimit="50" stroke-opacity=".07" xlink:href="#mg5ux"/></g><g><use fill="#fff" fill-opacity="0" stroke="#35375a" stroke-dasharray="4 4" stroke-miterlimit="50" stroke-opacity=".07" xlink:href="#mg5uy"/></g><g><use fill="#fff" fill-opacity="0" stroke="#35375a" stroke-dasharray="4 4" stroke-miterlimit="50" stroke-opacity=".07" xlink:href="#mg5uz"/></g><g><use fill="#fff" fill-opacity="0" stroke="#35375a" stroke-dasharray="4 4" stroke-miterlimit="50" stroke-opacity=".07" xlink:href="#mg5uA"/></g><g><use fill="#fff" fill-opacity="0" stroke="#35375a" stroke-dasharray="4 4" stroke-miterlimit="50" stroke-opacity=".07" xlink:href="#mg5uB"/></g><g><use fill="#fff" fill-opacity="0" stroke="#35375a" stroke-dasharray="4 4" stroke-miterlimit="50" stroke-opacity=".07" xlink:href="#mg5uC"/></g><g><use fill="#fff" fill-opacity="0" stroke="#35375a" stroke-dasharray="4 4" stroke-miterlimit="50" stroke-opacity=".07" xlink:href="#mg5uD"/></g></g></g></g></g></svg>