<svg xmlns="http://www.w3.org/2000/svg" xmlns:xlink="http://www.w3.org/1999/xlink" width="148" height="72" viewBox="0 0 148 72"><defs><path id="i6vja" d="M1029 177a21.65 21.65 0 0 1 24.66-21.52c6.73-8.38 19.06-14 33.15-14 2.72 0 5.38.22 7.94.62a37.34 37.34 0 0 1 30.18-15.1c20.4 0 36.95 15.99 37.02 35.74a18.08 18.08 0 0 1 15.05 17.88c0 10-8.04 18.12-17.96 18.12a17.85 17.85 0 0 1-13.45-6.1c-5.9 3.85-13 6.1-20.66 6.1-6.4 0-12.43-1.58-17.68-4.35a48.63 48.63 0 0 1-20.44 4.35 48.03 48.03 0 0 1-22.23-5.23 21.36 21.36 0 0 1-14.03 5.23A21.65 21.65 0 0 1 1029 177z"/></defs><g><g transform="translate(-1029 -127)"><use fill="#fff" xlink:href="#i6vja"/></g></g></svg>