<svg xmlns="http://www.w3.org/2000/svg" xmlns:xlink="http://www.w3.org/1999/xlink" width="120" height="58" viewBox="0 0 120 58"><defs><path id="8o28a" d="M0 40.27a17.5 17.5 0 0 1 20-17.33c5.45-6.75 15.44-11.27 26.87-11.27 2.2 0 4.36.17 6.44.49A30.34 30.34 0 0 1 77.8 0c16.54 0 29.95 12.88 30.01 28.8a14.59 14.59 0 1 1-13.27 24.08 30.7 30.7 0 0 1-16.74 4.91 30.8 30.8 0 0 1-14.35-3.5 39.65 39.65 0 0 1-16.57 3.5 39.15 39.15 0 0 1-18.02-4.22A17.5 17.5 0 0 1 0 40.27z"/><path id="8o28b" d="M20 34.76a22.85 22.85 0 0 1 23.87-22.72C32.54 12.5 23.5 22.5 23.5 34.76c0 12.26 9.05 22.25 20.38 22.72l-.9.02A22.85 22.85 0 0 1 20 34.76z"/><path id="8o28d" d="M90.93 43.1a14.47 14.47 0 0 1 15.14-14.38c-7.12.32-12.81 6.64-12.81 14.38 0 7.75 5.69 14.07 12.81 14.39l-.6.01a14.47 14.47 0 0 1-14.54-14.4z"/><path id="8o28f" d="M47.33 29C47.33 13.26 60.22.5 76.11.5c.4 0 .81 0 1.21.02-14.1.63-25.34 13.14-25.34 28.48s11.25 27.85 25.34 28.48l-1.21.02c-15.9 0-28.78-12.76-28.78-28.5z"/><linearGradient id="8o28c" x1="42.97" x2="42.97" y1="57.5" y2="22.02" gradientUnits="userSpaceOnUse"><stop offset="0" stop-color="#f1f1f1"/><stop offset=".72" stop-color="#f1f1f1"/><stop offset="1" stop-color="#fff"/></linearGradient><linearGradient id="8o28e" x1="105.47" x2="105.47" y1="57.5" y2="28.71" gradientUnits="userSpaceOnUse"><stop offset="0" stop-color="#f1f1f1"/><stop offset="1" stop-color="#f1f1f1"/><stop offset="1" stop-color="#fff"/></linearGradient><linearGradient id="8o28g" x1="76.1" x2="76.1" y1="57.5" y2="12.46" gradientUnits="userSpaceOnUse"><stop offset="0" stop-color="#f1f1f1"/><stop offset=".68" stop-color="#f1f1f1"/><stop offset="1" stop-color="#fff"/></linearGradient></defs><g><g><g><use fill="#fff" xlink:href="#8o28a"/></g><g><g><use fill="url(#8o28c)" xlink:href="#8o28b"/></g><g><use fill="url(#8o28e)" xlink:href="#8o28d"/></g><g><use fill="url(#8o28g)" xlink:href="#8o28f"/></g></g></g></g></svg>