<svg xmlns="http://www.w3.org/2000/svg" xmlns:xlink="http://www.w3.org/1999/xlink" width="82" height="40" viewBox="0 0 82 40"><defs><path id="vyora" d="M905 134.78a12.01 12.01 0 0 1 13.67-11.96c3.72-4.65 10.55-7.77 18.36-7.77 1.5 0 2.98.11 4.4.34a20.67 20.67 0 0 1 16.72-8.39c11.3 0 20.47 8.88 20.51 19.86 4.73.78 8.34 4.93 8.34 9.93 0 5.56-4.46 10.07-9.95 10.07a9.88 9.88 0 0 1-7.45-3.4 20.84 20.84 0 0 1-11.45 3.4 20.9 20.9 0 0 1-9.8-2.42 26.88 26.88 0 0 1-11.32 2.42c-4.59 0-8.84-1.08-12.32-2.91a11.81 11.81 0 0 1-7.77 2.9c-6.6 0-11.94-5.4-11.94-12.07z"/></defs><g><g transform="translate(-905 -107)"><use fill="#fff" xlink:href="#vyora"/></g></g></svg>