<svg xmlns="http://www.w3.org/2000/svg" xmlns:xlink="http://www.w3.org/1999/xlink" width="208" height="40" viewBox="0 0 208 40"><defs><path id="kfeja" d="M363.5 1038.5c-.94 2.33-3.7 2.54-6.05 2.6-1.62 0-3.3-.03-4.64-.66-2.44-1.46-2.3-4.43-2.24-7.11.18-2.25.01-4.88 2.01-6.23 1.94-1.1 4.5-.9 6.85-.82 1.03.03 1.96.13 2.84.79 2.07 1.99 1.73 4.8 1.75 7.54-.05 1.3 0 2.63-.53 3.9zm-7.15-9.46c-.74.06-1.34.27-1.74.84-.5 1-.49 2.03-.53 3.27-.02 1.39-.27 2.92.5 4.3.63.86 2.39.83 3.64.82.69-.05 1.54-.13 1.92-.84.5-1.17.5-2.59.53-3.8-.04-1.41 0-2.75-.63-3.88-.6-.91-2.4-.74-3.69-.7zm-4.67 12.13c-1.42-.08-3.01-.17-4.54-.07a42.34 42.34 0 0 1-1.73-2.96c2.07-.05 3.04.29 4.13-.4.74 1.13 1.44 2.28 2.14 3.43zm-10.3-14.83c1.46.08 2.97.18 4.4.08a3.1 3.1 0 0 0-.67 1.77l-.17 4.67-.03 4.46.15 3.72c-1.41-.1-2.84-.15-4.3-.1.25-.23.42-.5.5-.8.08-1.62.15-3.26.19-4.9l.01-8.21zm-6.22 10.83c-.09.01-.1 0-.16.05-.04.05.9.23 1.44.56.52.32.79.96.85 1.44.14 1.62.39 3.55-.15 5.1-1.09 2.37-4.23 1.91-6.2 1.94l-4.87-.14c-.57-.02-1.13.01-1.66.03a3 3 0 0 0 .45-1.34c.2-2.82.16-5.6.2-8.39l-.1-7.44c.01-.84-.02-1.89-.52-2.64l5.84-.03c2.17.02 4.44-.1 6.42.42.94.26 1.59 1.24 1.73 2.15l.14 1.22c-.02 1.88.3 4.12-.5 5.78-.64.98-1.76 1.38-2.91 1.3zm-6.54 5.75c.02.09-.02.26.1.28l3.54.03c.56 0 1.12-.15 1.38-.66a6 6 0 0 0 .12-3.28 1.08 1.08 0 0 0-.52-.69c-.61-.3-1.34-.27-2.06-.33l-2.54.04-.05.19zm1.73-13.54l-1.74.05v.18l-.04 5.41c-.02.3.36.2.57.25 1.59 0 3.9.16 4.73-.14 1-.37 1.2-1.7 1.22-2.64-.02-.82.12-2.37-1.05-2.83-1.13-.4-2.6-.24-3.7-.28zm-6.54 7.33c-1.45-.1-2.98-.21-4.47-.13l-1.76-2.91-.04-.07h.04c1.47.14 2.93.24 4.45.14h.1l.02.03c.52 1 1.15 1.96 1.66 2.94zm-7.25-9.1c.38.85.31 1.81.4 2.78-.02 1.73.39 3.85-1.41 4.7-1.73.45-3.58.05-5.45.19-.5.04-1.09-.02-1.28.5-.09.68-.26 1.75.18 2.18.45.34 1.43.3 2.2.37 1.46-.05 3.07.15 4.3-.47-.06.98.01 2.16.01 3.17l-5.12.01c-1.67-.06-3.58.12-4.48-1.38-.77-1.74-.8-4.69-.23-6.03 1-1.92 3.71-1.29 5.77-1.27.56-.03 1.1.06 1.62-.17.62-.35.5-1.2.49-1.73-.03-.47.03-1.13-.6-1.28a17.7 17.7 0 0 0-3.98-.21c-1.12.08-2.36.03-3.15.8.06-1.07 0-2.19.06-3.22.42-.13.87-.2 1.33-.25a43.5 43.5 0 0 1 5.48-.03c1.41.11 3.07.03 3.86 1.33zm-13.02-1.28c-.24.37-.52.73-.52 1.18-.16 3.39-.21 6.9-.28 10.22l-.02 4.62c.05 1.62 0 4.32.15 5.97a88.14 88.14 0 0 0-4.32-.03c.19-.42.4-.84.47-1.3.03-1.42.09-3.95.03-5.32-2.27-.02-4.66.1-6.72-.41-2.92-1.06-2.88-4.46-2.94-6.92.05-2.76.02-6.62 2.52-7.87.95-.5 3.25-.35 4.84-.33.68 1.02 1.25 2.1 1.85 3.11l-1.87-.08c-.99.03-2.38-.16-3 .88-.78 1.8-.72 4-.53 6.04.1.7.12 1.78.9 2.3.88.38 1.45.38 3 .42.67 0 1.38.03 2.02-.13l.02-2.42-.03-4.45-.1-5.46zm-16.38.05a5.2 5.2 0 0 0-.04.05c-.54.74-.44 1.79-.47 2.68l.02 6.03c-.02 1 .05 2.02-.16 2.95-.14.69-.71 1.77-1.64 2.24-1.62.86-3.63.8-5.51.53-.52-1-1.16-1.99-1.7-2.94 1.37.2 3.13.2 4.32-.03.47-.15.85-.58.92-1.04l.02-4.37c-.04-2-.17-4.06-.12-6.11 1.41.13 2.91.1 4.3.01h.06zm-9.42.02l-.26.44c-.33 1.2-.3 2.5-.35 3.78l-.01 4.13.01 3.36c-.01.9.1 1.83.13 2.73-1.45-.14-2.97-.06-4.41-.06.85-.63.54-1.8.66-2.75l.02-4.78c.08-2.32-.2-4.8-.18-6.88 1.4.04 3 .08 4.4.03zm-7-.01c-.34.44-.55.94-.62 1.48-.03 1.98-.12 3.84-.09 5.78l.1 4.1c.1 1.11.04 2.15.1 3.27h-1.2l-5.06.02c-2.43 0-5.43.11-6.47-2.36-.57-1.54-.7-3.35-.7-5.07.03-2.12-.08-5.72 2.45-6.9.96-.46 3.24-.4 4.8-.32.64.95 1.27 1.93 1.83 2.91-.8-.01-1.54-.1-2.35-.06-.92.08-2-.05-2.48.85-.79 1.73-.63 3.76-.45 5.66.15.86.12 1.96 1.17 2.34 1.43.43 3.04.2 4.6.2l.1-.07.02-7.47c.01-1.28-.21-2.42-.04-3.67.1-.44.63-.62 1.07-.67 1.03.03 2.15.05 3.23-.02zm-15.93.08c-.38.4-.5 1.13-.49 1.47-.03 2.28-.2 4.6-.2 6.9l.04 5.53.07 6.35.02 1.41c-1.43-.1-2.95-.03-4.4-.05.3-.42.52-.87.54-1.42l.16-7.46c.07-2.63-.07-5.17-.04-7.8l-.12-4.98c1.42.2 2.97.07 4.42.05zm-8.06 1.68c.86 1.27.99 3.11.99 5.76 0 2.8.18 6.19-2.6 7.66-1 .46-3.17.34-4.7.22a78.36 78.36 0 0 1-1.77-3.08c1.22.04 2.62.21 3.8-.06.6-.13.98-.58 1.2-1.11a14 14 0 0 0 .43-4.58c-.08-1.34.17-2.86-1.2-3.53-1.35-.45-3.05-.26-4.53-.24h-.04l-.22.01.03 6.97c-.07 1.82.12 3.57.09 5.38h-4.46c.25-.33.48-.64.51-1.05.09-2.25.18-4.55.18-6.8l.1-4.51c-.05-1.63.02-3.43-.07-5.09l-.1-3.2-.02-1.22c1.43.07 3.07.02 4.5.03-.24.3-.36.65-.45 1.02-.35 2.4-.23 3-.28 5.53l.07.06 2.76-.02c2.13.15 4.54-.14 5.78 1.85zm-15.21 1.52c.4 2.18.5 4.62.26 6.9-.2 1.64-.35 3.27-1.7 4.43-1.43 1.2-3.58.72-5.45.8l-.1-.08c-.65-1-1.23-2.06-1.78-3.08l1.87.1c1.15-.08 2.58.13 3.07-1.1.66-1.85.61-4.1.37-6.1-.13-.78-.18-1.61-.91-2.1-1.4-.6-3.29-.32-4.84-.34l-.14.04c-.12 4.06.02 8.34.07 12.42h-4.4c.26-.36.5-.74.5-1.2l.21-5.07.07-7.28-.1-4.61-.14-3.67c1.45.12 3.04.04 4.49.07-.65.98-.56 2.38-.65 3.56l-.02 2.89c1.07-.1 2.24-.04 3.36-.06 1.85.14 3.93.04 5.12 1.65.38.57.73 1.15.84 1.83zm-19.32-3.3c1.2-.1 2.42-.02 3.6.01-.36.42-.4 1.15-.43 1.52l-.02 10.68.21 6.37-.02 1.24c-1.48-.07-3.02.04-4.55.05.74-.57.6-1.53.7-2.35v-8.23l-.14-6.66c0-.76-.12-1.55.1-2.25a.8.8 0 0 1 .55-.38zm-2.85-.04c.53 1.03 1.28 2.06 1.75 3.11l-4.26-.04-2.24.06c-.58.07-1.2 0-1.7.3-1.23.7-.9 2.63-.94 3.98l.09 7.21c0 1.82.16 3.53.2 5.38-1.4-.07-2.9.07-4.34.05.26-.26.42-.55.49-.9l.09-3.64-.1-6.43c-.03-1.94-.3-3.88.18-5.96.36-1.33 1.26-2.54 2.76-2.86a57.5 57.5 0 0 1 7.83-.26z"/><path id="kfejb" d="M183.98 1048.4v-20.93a14 14 0 0 0-27.98 0v20.93h27.98"/><path id="kfejc" d="M168.37 1046.65c-.86 0-1.43-.76-1.62-.84-1.28-.54-2.84-1.25-3.03-3.91-.2-2.99 3.28-4.7 3.43-4.92.13-.2-.21-.93-.21-1.64 0-.72.77-1.67.9-1.9.16-.34.16-.54-.25-.84a6.92 6.92 0 0 0-2.14-.95c-.53 0-1.32.62-1.44.8-.12.18.16.7-.23 1.16-.25.3-.86.61-1.04.91-.1.18-.13 1.83.1 2.04.62.55 1.2.64.83 1.64-.18.46-1.1 2.07-2.11 2.07-.6 0-2.39-1.3-2.3-2.49.06-.81 1.07-1.1 1.13-1.55.15-1.04.17-1.53.04-2.04-.06-.24-.96-.93-1.16-1.28-.23-.4.34-.99.52-1.26.12-.18-.2-.83-.05-1.38.11-.42 1.06-1.42 1.07-1.78.01-.47.37-4.55.43-5.9.06-1.3.76-1.33 1.17-1.3.45.03 1.03-.2 1.06 1.54.03 1.75.1 4.69.12 5.07.02.57.49 1.28 1.36 1.15.86-.13 1.92-.4 2.05-1.5.09-.8-.36-2.36-.46-2.96-.09-.6.17-2.66.2-3.21.03-.56.1-2.3.02-2.59-.1-.28-.66-1.05-.65-1.4.01-.54.3-.75 1.52-.9 1.4-.16 1.78.15 2.11.33.2-.01.6-.5 1.76-.36 1.17.14 1.7.26 1.7.95s-.27.68-.39 1.77c-.23 2.12.37 4.01.35 4.48-.03.46-.61 2.17-.64 3.1-.03 1.3 1 2.2 2.02 2.22 1.05.01 1.62-.3 1.42-1.14-.2-.85-.63-2.3-.72-2.6-.12-.4-.26-1.26.54-1.45.7-.15 1-.27 1.36.88.27.88.57 1.96.7 1.98.3.04.98-2.02 1.1-2.25.12-.25.5-.67 1.04-.43.54.24.96.32.75.85-.21.52-1.37 3.23-1.43 3.72-.03.24.36 1.08.3 1.74-.06.66-.35 1.88-.35 1.94 0 .06.92 3.26.97 3.43.04.16.1.5-.18.66-.29.16-.76.33-.95.34-.2.02-.62-.07-.7-.36-.1-.28-.56-2.07-.62-2.24-.06-.16-.21-.52-.4-.03-.2.5-.76 2-.9 2.2-.13.2-.52.55-1.06.3-.54-.26-.81-.56-.68-.98.14-.42.86-2.37.92-2.63.06-.25.18-.39-.32-.88-.5-.5-.73-.72-1.2-.48-.46.24-1.77.85-2.06 1.2-.28.34-.31.46-.22.73.09.27.78 1.67.72 2.33l-.1 1.02c0 .08 0 .2.16.26s3.3 1.35 3.4 4.17c.07 2.4-1.22 3.42-1.67 3.73-.45.32-.98.6-1.06.7-.07.11-.61.9-1.15.97a4.22 4.22 0 0 1-1.76-.21c-.22-.15-.58-.6-.58-.6s-.6.8-1.44.8zm2.65-2.46c.67.02.9.06 1.14-.05.24-.13 1.52-.8 1.25-2.16-.09-.45-1.03-2.32-3.55-2.27-3.03.07-3.65 1.78-3.77 2.3-.3 1.39 1.06 2 1.43 2.18.25.13.76-.1 1.4-.08.66.03.83.75.99.76.16 0 .4-.7 1.11-.68zm-1.3-26.59c-.14.05-.55.52-.72.66-.18.15-.22.32-.32.94-.1.66.05 2.2.16 2.68.18.73 1.16.98 1.6.23.3-.5.36-2 .36-2.5-.01-.4-.1-1.1-.25-1.24-.15-.15-.76-.8-.83-.77z"/><path id="kfejd" d="M214.82 1010.78c0-.84.07-1.07.44-1.26h-1.87c.36.2.44.42.44 1.26v3.97c0 .84-.08 1.06-.44 1.26h1.87c-.37-.2-.44-.42-.44-1.26v-3.97zm1.53 3.93c.3.38.49.73.49.88 0 .17-.1.29-.3.42h1.77l-2.27-2.92c1.44-1.94 1.6-2.15 2-2.61.27-.3.58-.55 1.18-.96a9.43 9.43 0 0 0-.95-.05c-.76 0-.92.14-2.2 1.94a34.66 34.66 0 0 1-1.08 1.49z"/><path id="kfeje" d="M225.33 1015.2c.61-.6 1-1.5 1-2.4 0-1.92-1.6-3.44-3.64-3.44-2.01 0-3.6 1.48-3.6 3.37 0 1.96 1.6 3.45 3.73 3.45a3.7 3.7 0 0 0 2.5-.97zm-4.45-.46a2.73 2.73 0 0 1-.68-1.85c0-.76.29-1.53.8-2.1.44-.49 1-.73 1.72-.73 1.48 0 2.49 1.06 2.49 2.59a3.1 3.1 0 0 1-.67 1.96c-.5.58-1.09.86-1.86.86a2.6 2.6 0 0 1-1.8-.73z"/><path id="kfejf" d="M233.07 1015.3c.18.46.18.46.18.71h1.71c-.21-.1-.3-.3-.3-.62 0-.1 0-.23.02-.35l.6-4.35c.08-.68.17-.87.53-1.17h-1.9c.3.13.4.35.4.75 0 .12 0 .21-.04.55l-.52 4.22-2.22-5.65c-.46.4-.58.55-.8 1.08l-1.94 4.57-.58-4.35a5.93 5.93 0 0 1-.05-.52c0-.3.1-.44.4-.65h-1.62c.32.3.45.65.53 1.3l.57 4.14c.06.4.06.4.06.5 0 .23-.09.36-.35.55h1.73c0-.11 0-.14.1-.34l1.89-4.46 1.6 4.09"/><path id="kfejg" d="M242.44 1015.3c.18.46.18.46.18.71h1.71c-.21-.1-.3-.3-.3-.62 0-.1 0-.23.02-.35l.6-4.35c.08-.68.17-.87.53-1.17h-1.9c.3.13.4.35.4.75 0 .12 0 .21-.04.55l-.52 4.22-2.22-5.65c-.46.4-.58.55-.8 1.08l-1.94 4.57-.58-4.35a5.78 5.78 0 0 1-.05-.52c0-.3.1-.44.4-.65h-1.62c.32.3.45.65.53 1.3l.57 4.14c.06.4.06.4.06.5 0 .23-.09.36-.35.55h1.73c0-.11 0-.14.1-.34l1.89-4.46 1.6 4.09"/><path id="kfejh" d="M250.39 1010.2a2.42 2.42 0 0 0-1.95-.84c-.95 0-1.72.4-2.07 1.08-.18.36-.23.65-.23 1.44v2.87c0 .84-.08 1.06-.44 1.26h1.87c-.36-.2-.44-.42-.44-1.26v-2.87c0-.66.07-.94.34-1.26.3-.34.75-.54 1.26-.54.57 0 1.12.26 1.41.68.16.22.21.41.21.78v3.2c0 .85-.08 1.07-.44 1.27h1.87c-.36-.2-.44-.42-.44-1.26v-3.97c0-.84.08-1.06.44-1.26h-1.4v.68"/><path id="kfeji" d="M253.91 1010.68c0-.65.11-.9.52-1.16h-1.76c.42.27.52.5.52 1.16v4.17c0 .64-.1.9-.51 1.16h1.44c.04-.1.04-.11.23-.37L258 1011v3.86c0 .65-.11.89-.52 1.16h1.76c-.41-.27-.52-.5-.52-1.16v-5.65c-.54.18-.95.5-1.35 1.04l-3.46 4.38v-3.94"/><path id="kfejj" d="M261.34 1010.35c.46-.07.76-.1 1.21-.1.86 0 1.4.16 1.93.56l-.46-1.29h-4.11c.36.2.44.42.44 1.27v3.96c0 .84-.09 1.07-.44 1.26h3.28a.9.9 0 0 1 .37.06v-1.15c-.32.3-.57.4-1.2.4-.48 0-.73-.03-1.02-.08v-1.83h1.31c.15 0 .22 0 .34.06v-1.05c-.16.2-.34.27-.77.27h-.88v-2.34"/><path id="kfejk" d="M266.21 1010.68c0-.65.11-.9.52-1.16h-1.76c.42.27.52.5.52 1.16v4.17c0 .64-.11.9-.51 1.16h1.44c.03-.1.04-.11.23-.37l3.65-4.65v3.86c0 .65-.11.89-.52 1.16h1.76c-.42-.27-.52-.5-.52-1.16v-5.65c-.54.18-.95.5-1.35 1.04l-3.46 4.38v-3.94"/><path id="kfejl" d="M279.02 1014.83c-.42.41-.98.65-1.56.65-.78 0-1.3-.38-1.3-.93 0-.48.28-.73 1.46-1.27a6.54 6.54 0 0 0 1.43-.8c.35-.26.54-.65.54-1.07 0-.48-.23-.96-.6-1.33-.51-.49-1.2-.73-2.07-.73-.63 0-1.12.08-1.74.3l-.3 1.23a3.38 3.38 0 0 1 2.17-.78c.84 0 1.47.44 1.47 1 0 .27-.13.53-.32.7-.23.2-.47.33-1.27.7-.77.34-1.08.52-1.36.78-.32.28-.51.71-.51 1.14 0 1.07.96 1.75 2.45 1.75.52 0 .97-.07 1.5-.22v-1.12"/><path id="kfejm" d="M286.56 1015.2c.61-.6 1-1.5 1-2.4 0-1.92-1.61-3.44-3.65-3.44-2 0-3.59 1.48-3.59 3.37 0 1.96 1.6 3.45 3.72 3.45a3.7 3.7 0 0 0 2.52-.97zm-4.45-.46a2.74 2.74 0 0 1-.68-1.85c0-.76.29-1.53.8-2.1.44-.49 1-.73 1.72-.73 1.48 0 2.49 1.06 2.49 2.59a3.1 3.1 0 0 1-.68 1.96c-.48.58-1.08.86-1.85.86-.67 0-1.36-.28-1.8-.73z"/><path id="kfejn" d="M294.3 1015.3c.2.46.2.46.2.71h1.7c-.21-.1-.3-.3-.3-.62 0-.1 0-.23.02-.35l.6-4.35c.08-.68.17-.87.53-1.17h-1.9c.3.13.4.35.4.75 0 .12 0 .21-.04.55l-.52 4.22-2.21-5.65c-.47.4-.6.55-.82 1.08l-1.93 4.57-.58-4.35a5.82 5.82 0 0 1-.05-.52c0-.3.1-.44.4-.65h-1.62c.32.3.45.65.53 1.3l.57 4.14c.06.4.06.4.06.5 0 .23-.09.36-.35.55h1.73c0-.11 0-.14.1-.34l1.89-4.46 1.6 4.09"/><path id="kfejo" d="M305.74 1014.87c-.45.42-.97.6-1.76.6-1.6 0-2.75-1.1-2.75-2.62 0-1.54 1.28-2.79 2.87-2.79.46 0 1.04.08 1.35.2v1.3c0 .84-.07 1.07-.44 1.27h1.49c-.04-.13-.06-.31-.06-.58v-2.1c0-.3 0-.36.06-.5-.13-.01-.16-.01-.35-.06a9.33 9.33 0 0 0-2.02-.23c-1.07 0-1.91.22-2.6.7a3.23 3.23 0 0 0 .1 5.42c.7.46 1.52.69 2.55.69.54 0 .9-.04 1.56-.17v-1.13"/><path id="kfejp" d="M309.05 1010.35c.46-.07.77-.1 1.21-.1.86 0 1.4.16 1.93.56l-.46-1.29h-4.11c.37.2.44.42.44 1.27v3.96c0 .84-.08 1.07-.44 1.26h3.28c.19 0 .24.01.37.06v-1.15c-.32.3-.57.4-1.2.4-.48 0-.73-.03-1.02-.08v-1.83h1.32c.14 0 .21 0 .33.06v-1.05c-.16.2-.34.27-.77.27h-.88v-2.34"/><path id="kfejq" d="M314.18 1010.78c0-.84.07-1.07.44-1.26h-1.87c.36.2.44.42.44 1.26v3.96c0 .85-.08 1.07-.44 1.27h1.89l.42.01c.64 0 1.1-.12 1.45-.38.4-.3.66-.78.66-1.26 0-.75-.67-1.46-1.6-1.69 1.48-1.98 2.22-2.76 3-3.17-.6-.05-.7-.06-.9-.06-.56 0-.86.19-1.52.98-.58.68-1.2 1.55-1.73 2.46 1.11.18 1.64.65 1.64 1.4 0 .65-.48 1.1-1.19 1.1-.21 0-.4-.02-.7-.08v-4.54"/><path id="kfejr" d="M322.53 1010.68c0-.65.11-.9.51-1.16h-1.94c.36.2.44.42.44 1.26v3.97c0 .84-.08 1.06-.44 1.26h.94l1.1.01h.31c.55 0 .95-.08 1.3-.24.6-.3 1-.87 1-1.49 0-1.02-.98-1.85-2.18-1.85-.3 0-.44.03-.7.13.61.08.95.2 1.26.48.35.3.52.64.52 1.07 0 .75-.54 1.22-1.43 1.22-.26 0-.42-.02-.7-.09v-4.57"/><path id="kfejs" d="M327.9 1010.32c.45-.06.91-.1 1.33-.1.71 0 1.15.15 1.8.6l-.53-1.3h-4.02c.36.2.44.42.44 1.26v3.97c0 .84-.08 1.06-.44 1.26h1.87c-.37-.2-.44-.42-.44-1.26v-4.43"/><path id="kfejt" d="M333.38 1011.97l-.56-1.5c-.08-.2-.11-.39-.11-.51 0-.19.1-.3.35-.44h-1.81c.46.29.59.48.91 1.33l1.74 4.33c.08.2.11.33.11.45 0 .17-.07.27-.3.38h1.57l2.08-5.16c.3-.78.5-1.07.95-1.33h-2.04c.3.18.35.23.35.4 0 .09-.02.16-.17.54l-.58 1.5h-2.5zm1.24 3.2l-1-2.57h2z"/><path id="kfeju" d="M342.66 1014.9c-.15.29-.36.37-.93.37l-.69-.03h-.16v-4.56c0-.66.1-.88.53-1.16h-1.96c.36.19.44.43.44 1.26v4.46c-.2.02-.56.03-.79.03-.63 0-.87-.06-1.28-.37l.36 1.18c.12-.04.32-.07.5-.07h3.71l.39.02c.06 0 .1 0 .2.05l-.32-1.18"/><path id="kfejv" d="M347.38 1014.83c-.42.41-.98.65-1.56.65-.78 0-1.3-.38-1.3-.93 0-.48.28-.73 1.46-1.27a6.55 6.55 0 0 0 1.43-.8c.35-.26.54-.65.54-1.07 0-.48-.23-.96-.61-1.33-.5-.49-1.2-.73-2.06-.73-.63 0-1.13.08-1.74.3l-.3 1.23a3.38 3.38 0 0 1 2.17-.78c.84 0 1.47.44 1.47 1 0 .27-.13.53-.32.7-.23.2-.47.33-1.27.7-.77.34-1.08.52-1.36.78-.32.28-.51.71-.51 1.14 0 1.07.96 1.75 2.45 1.75.52 0 .97-.07 1.5-.22v-1.12"/></defs><g><g transform="matrix(1 0 0 -1 -156 1050)"><g><g><use fill="#231f20" xlink:href="#kfeja"/></g><g><use fill="#231f20" xlink:href="#kfejb"/></g><g><use fill="#fff" xlink:href="#kfejc"/></g><g><use fill="#231f20" xlink:href="#kfejd"/></g><g><use fill="#231f20" xlink:href="#kfeje"/></g><g><use fill="#231f20" xlink:href="#kfejf"/></g><g><use fill="#231f20" xlink:href="#kfejg"/></g><g><use fill="#231f20" xlink:href="#kfejh"/></g><g><use fill="#231f20" xlink:href="#kfeji"/></g><g><use fill="#231f20" xlink:href="#kfejj"/></g><g><use fill="#231f20" xlink:href="#kfejk"/></g><g><use fill="#231f20" xlink:href="#kfejl"/></g><g><use fill="#231f20" xlink:href="#kfejm"/></g><g><use fill="#231f20" xlink:href="#kfejn"/></g><g><use fill="#231f20" xlink:href="#kfejo"/></g><g><use fill="#231f20" xlink:href="#kfejp"/></g><g><use fill="#231f20" xlink:href="#kfejq"/></g><g><use fill="#231f20" xlink:href="#kfejr"/></g><g><use fill="#231f20" xlink:href="#kfejs"/></g><g><use fill="#231f20" xlink:href="#kfejt"/></g><g><use fill="#231f20" xlink:href="#kfeju"/></g><g><use fill="#231f20" xlink:href="#kfejv"/></g></g></g></g></svg>