<svg xmlns="http://www.w3.org/2000/svg" xmlns:xlink="http://www.w3.org/1999/xlink" width="132" height="40" viewBox="0 0 132 40"><defs><path id="9672a" d="M275.17 2916.22c0-.91.34-1.7 1.03-2.37.69-.67 1.51-1 2.47-1 .98 0 1.8.33 2.5 1a3.18 3.18 0 0 1 1.03 2.4c0 .94-.34 1.75-1.03 2.42-.67.67-1.5 1-2.48 1-.97 0-1.8-.33-2.5-1a3.28 3.28 0 0 1-1.02-2.45zm6.21 9.44v22.69h-5.4v-22.7zm-30.46 11.27c0 2.18.6 3.95 1.8 5.31a5.97 5.97 0 0 0 4.65 2.08c2 0 3.61-.67 4.85-2a7.62 7.62 0 0 0 1.84-5.27c0-2.13-.61-3.88-1.84-5.27a6.2 6.2 0 0 0-4.8-2.02c-1.86 0-3.4.68-4.66 2.05a7.42 7.42 0 0 0-1.84 5.12zm12.82-11.27h5.42v22.69h-5.42v-2.38c-2.23 2.02-4.62 3.03-7.18 3.03-3.23 0-5.9-1.13-8.02-3.4-2.1-2.32-3.15-5.2-3.15-8.67 0-3.4 1.05-6.23 3.15-8.5 2.1-2.27 4.72-3.4 7.87-3.4 2.73 0 5.17 1.09 7.33 3.26zM201.66 2909v24l7.61-7.34h7.25l-10.16 9.53 10.9 13.16h-7l-7.74-9.58-.86.84v8.74h-5.4V2909zm-16.86 24.95c-.75-2.8-2.56-4.2-5.45-4.2-.65 0-1.27.1-1.84.3a5.34 5.34 0 0 0-2.79 2.15c-.34.52-.6 1.1-.77 1.75zm5.55 4.29H173.6a6.79 6.79 0 0 0 1.88 4.45 5.8 5.8 0 0 0 4.24 1.63c1.35 0 2.46-.31 3.34-.93.87-.63 1.85-1.77 2.96-3.45l4.56 2.47a17.64 17.64 0 0 1-2.24 3 11.8 11.8 0 0 1-2.52 2.04c-.9.54-1.86.93-2.9 1.18-1.04.25-2.17.37-3.39.37-3.49 0-6.29-1.09-8.4-3.26-2.11-2.2-3.17-5.1-3.17-8.71 0-3.6 1.02-6.5 3.07-8.72 2.07-2.19 4.8-3.28 8.21-3.28 3.45 0 6.17 1.06 8.17 3.19 1.98 2.11 2.97 5.04 2.97 8.78zM151 2925.66h5.4v2.02c1-1 1.87-1.7 2.64-2.07a6.21 6.21 0 0 1 2.79-.58c1.42 0 2.91.45 4.46 1.35l-2.47 4.8a5.26 5.26 0 0 0-3-1.07c-2.95 0-4.42 2.16-4.42 6.47v11.77H151z"/></defs><g><g transform="translate(-151 -2909)"><use fill="#dc4e76" xlink:href="#9672a"/></g></g></svg>