<svg xmlns="http://www.w3.org/2000/svg" xmlns:xlink="http://www.w3.org/1999/xlink" width="71" height="75" viewBox="0 0 71 75"><defs><path id="x8cla" d="M462.28 443.22c.29-.3.43-.68.43-1.17 0-.49-.14-.93-.43-1.32l-1.32-1.17a1.4 1.4 0 0 0-1.17-.59c-.5 0-.93.2-1.32.59l-23.88 23.74-10.1-10.26c-.3-.3-.7-.44-1.18-.44-.49 0-.93.15-1.32.44l-1.17 1.32c-.39.3-.59.68-.59 1.17 0 .49.15.93.44 1.32l12.6 12.6c.4.4.83.59 1.32.59.49 0 .88-.2 1.17-.59zm-23 43.95c-4.99-1.96-9.67-5.33-14.07-10.11a55.86 55.86 0 0 1-10.98-17.73 62.57 62.57 0 0 1-4.54-23.58c0-1.07.49-1.8 1.46-2.2l28.12-11.72a2.7 2.7 0 0 1 1.76 0l28.12 11.72c.98.4 1.46 1.13 1.46 2.2 0 8.2-1.5 16.06-4.54 23.58a55.86 55.86 0 0 1-10.98 17.73c-4.4 4.78-9.08 8.15-14.06 10.1-.59.2-1.17.2-1.76 0zm3.51-69.58a6.23 6.23 0 0 0-5.27 0l-28.13 11.71a6.32 6.32 0 0 0-3.22 2.5 6.97 6.97 0 0 0-1.17 3.95c0 9.18 1.66 17.82 4.98 25.93a58.71 58.71 0 0 0 12.16 18.9c4.69 4.97 9.81 8.59 15.38 10.83 1.76.79 3.52.79 5.27 0 4.89-1.95 9.57-5.12 14.07-9.52a61.55 61.55 0 0 0 12.89-18.45c3.7-8.4 5.56-17.63 5.56-27.69 0-1.46-.39-2.78-1.17-3.96a6.32 6.32 0 0 0-3.22-2.49z"/></defs><g><g transform="translate(-405 -417)"><use fill="#5c4ae4" xlink:href="#x8cla"/></g></g></svg>